<?xml version="1.0" standalone="no"?><!DOCTYPE svg PUBLIC "-//W3C//DTD SVG 1.1//EN" "http://www.w3.org/Graphics/SVG/1.1/DTD/svg11.dtd"><svg t="1616677558551" class="icon" viewBox="0 0 1025 1024" version="1.1" xmlns="http://www.w3.org/2000/svg" p-id="17491" xmlns:xlink="http://www.w3.org/1999/xlink" width="200.1953125" height="200"><defs><style type="text/css"></style></defs><path d="M511.992258 1023.984517C229.675008 1023.984517 0 794.309509 0 512.007742 0 229.690491 229.675008 0.015483 511.992258 0.015483s512.007742 229.675008 512.007742 511.992258C1024 794.309509 794.309509 1023.984517 511.992258 1023.984517zM511.992258 61.947533C263.830534 61.947533 61.93205 263.846017 61.93205 512.007742s201.898483 450.044725 450.060208 450.044725 450.075691-201.898483 450.075691-450.044725S760.153983 61.947533 511.992258 61.947533z" p-id="17492"></path><path d="M418.366482 481.041716l326.660598 0 0 61.93205-326.660598 0 0-61.93205Z" p-id="17493"></path><path d="M418.350999 316.28698l326.660598 0 0 61.93205-326.660598 0 0-61.93205Z" p-id="17494"></path><path d="M418.335516 645.78097l326.676081 0 0 61.93205-326.676081 0 0-61.93205Z" p-id="17495"></path><path d="M294.502381 481.026233l63.449385 0 0 61.93205-63.449385 0 0-61.93205Z" p-id="17496"></path><path d="M294.486898 316.271497l63.449385 0 0 61.93205-63.449385 0 0-61.93205Z" p-id="17497"></path><path d="M294.471415 645.78097l63.464868 0 0 61.93205-63.464868 0 0-61.93205Z" p-id="17498"></path></svg>